<svg xmlns="http://www.w3.org/2000/svg" width="1650" height="335" viewBox="0 0 1650 335">
<path d="M631,392l97-56-48.5-28L631,280Zm0-112,97-56-48.5-28L631,168Zm97,56,97-56-48.5-28L728,224Zm0-112,97-56-48.5-28L728,112Zm-97-56,97-56L679.5,84,631,56Zm0-112L728,0,679.5-28,631-56Zm97,56,97-56L776.5,28,728,0Zm97,280,97-56-48.5-28L825,280Zm0-112,97-56-48.5-28L825,168Zm97,56,97-56-48.5-28L922,224Zm0-112,97-56-48.5-28L922,112Zm-97-56,97-56L873.5,84,825,56Zm0-112L922,0,873.5-28,825-56Zm97,56,97-56L970.5,28,922,0Z" style="fill:none;stroke:#fff;stroke-miterlimit:10;stroke-width:0.5px;opacity:0.14;isolation:isolate"/>
<path d="M437,392l97-56-48.5-28L437,280Zm0-112,97-56-48.5-28L437,168Zm97,56,97-56-48.5-28L534,224Zm0-112,97-56-48.5-28L534,112Zm-97-56,97-56L485.5,84,437,56Zm0-112L534,0,485.5-28,437-56Zm97,56,97-56L582.5,28,534,0Zm485,280,97-56-48.5-28L1019,280Zm0-112,97-56-48.5-28L1019,168Zm97,56,97-56-48.5-28L1116,224Zm0-112,97-56-48.5-28L1116,112Zm-97-56,97-56-48.5-28L1019,56Zm0-112,97-56-48.5-28L1019-56Zm97,56,97-56-48.5-28L1116,0Z" style="fill:none;stroke:#fff;stroke-miterlimit:10;stroke-width:0.5px;opacity:0.18;isolation:isolate"/>
<path d="M340,336l97-56-48.5-28L340,224Zm0-112,97-56-48.5-28L340,112Zm0-112,97-56L388.5,28,340,0Zm873,280,97-56-48.5-28L1213,280Zm0-112,97-56-48.5-28L1213,168Zm0-112,97-56-48.5-28L1213,56Zm0-112,97-56-48.5-28L1213-56Z" style="fill:none;stroke:#fff;stroke-miterlimit:10;stroke-width:0.5px;opacity:0.12;isolation:isolate"/>
<path d="M146,336l97-56-48.5-28L146,224Zm0-112,97-56-48.5-28L146,112Zm0-112,97-56L194.5,28,146,0Zm97,280,97-56-48.5-28L243,280Zm0-112,97-56-48.5-28L243,168Zm0-112,97-56L291.5,84,243,56Zm0-112L340,0,291.5-28,243-56ZM1310,336l97-56-48.5-28L1310,224Zm0-112,97-56-48.5-28L1310,112Zm0-112,97-56-48.5-28L1310,0Zm97,280,97-56-48.5-28L1407,280Zm0-112,97-56-48.5-28L1407,168Zm0-112,97-56-48.5-28L1407,56Zm0-112,97-56-48.5-28L1407-56Z" style="fill:none;stroke:#fff;stroke-miterlimit:10;stroke-width:0.5px;opacity:0.08;isolation:isolate"/>
<path d="M49,392l97-56L97.5,308,49,280Zm0-112,97-56L97.5,196,49,168Zm0-112,97-56L97.5,84,49,56ZM49,56,146,0,97.5-28,49-56ZM-47.5,336l97-56L1,252l-48.5-28Zm0-112,97-56L1,140l-48.5-28Zm0-112,97-56L1,28-47.5,0ZM1504,336l97-56-48.5-28L1504,224Zm0-112,97-56-48.5-28L1504,112Zm97.5,168,97-56L1650,308l-48.5-28Zm0-112,97-56L1650,196l-48.5-28Zm0-112,97-56L1650,84l-48.5-28Zm0-112,97-56L1650-28l-48.5-28ZM1504,112l97-56-48.5-28L1504,0Z" style="fill:none;stroke:#fff;stroke-miterlimit:10;stroke-width:0.5px;opacity:0.04;isolation:isolate"/>
</svg>