<svg xmlns="http://www.w3.org/2000/svg" width="158" height="13" viewBox="0 0 158 13"><title>OKONTO</title><path d="M100.5,13H98.1L85.5,2.5V13h-3V0h4.7l13.3,11V0h3V13Zm8-13h21V3h-9V13h-3V3h-9ZM36,7.77,32.5,9.89V13h-3V0h3V6.68L43.61,0H49L38.7,6.16,49.86,13H44.55ZM20.5,3v7H3.5V3h17M21,0H3A2.5,2.5,0,0,0,.5,2.5v8A2.5,2.5,0,0,0,3,13H21a2.5,2.5,0,0,0,2.5-2.5v-8A2.5,2.5,0,0,0,21,0ZM73.5,3v7h-17V3h17M74,0H56a2.5,2.5,0,0,0-2.5,2.5v8A2.5,2.5,0,0,0,56,13H74a2.5,2.5,0,0,0,2.5-2.5v-8A2.5,2.5,0,0,0,74,0Zm80.5,3v7h-17V3h17m.5-3H137a2.5,2.5,0,0,0-2.5,2.5v8A2.5,2.5,0,0,0,137,13h18a2.5,2.5,0,0,0,2.5-2.5v-8A2.5,2.5,0,0,0,155,0Z" style="fill:#fff"/></svg>