<svg xmlns="http://www.w3.org/2000/svg" width="38" height="30" viewBox="0 0 38 30"><path d="M14.52891,9.212,9.66407,20.81771H6.49049L4.09633,11.5555a1.27323,1.27323,0,0,0-.713-1.01951,12.55974,12.55974,0,0,0-2.9619-.98721L.49227,9.212H5.60141A1.40038,1.40038,0,0,1,6.98653,10.3946L8.25117,17.111l3.12344-7.89888ZM26.964,17.02874c.01322-3.06284-4.23392-3.23262-4.20572-4.60109.00927-.41587.40575-.85883,1.27313-.972a5.66844,5.66844,0,0,1,2.96124.51937l.526-2.46215A8.09421,8.09421,0,0,0,24.71029,9c-2.96827,0-5.05638,1.57654-5.07307,3.83612-.019,1.67092,1.49161,2.60254,2.62729,3.15892,1.17093.5687,1.56344.9337,1.55771,1.44184-.00814.77864-.93392,1.12334-1.79559,1.13633a6.27431,6.27431,0,0,1-3.08369-.73345L18.398,20.384a9.12379,9.12379,0,0,0,3.33788.61586c3.15551,0,5.21893-1.55815,5.22818-3.97113m7.83833,3.789h2.7762L35.153,9.212H32.592a1.36644,1.36644,0,0,0-1.27908.85079L26.80765,20.81771h3.15327l.626-1.73326h3.85154ZM31.4508,16.70607l1.58062-4.35847.90926,4.35847ZM18.81914,9.212,16.33675,20.81771H13.33424L15.81677,9.212Z" style="fill:#10357f"/></svg>