<svg xmlns="http://www.w3.org/2000/svg" xmlns:xlink="http://www.w3.org/1999/xlink" width="144" height="40" viewBox="0 0 144 40"><defs><linearGradient id="a" x1="8.76" y1="37.05" x2="42.89" y2="2.93" gradientUnits="userSpaceOnUse"><stop offset="0" stop-color="#20bcc5"/><stop offset="1" stop-color="#00b69f"/></linearGradient><linearGradient id="b" x1="115.95" y1="31.01" x2="137.99" y2="8.96" xlink:href="#a"/></defs><title>cex-io</title><path d="M40,0h-20A19.94,19.94,0,0,0,0,20,20,20,0,0,0,20,40l.38,0H40V35h-20A15,15,0,0,1,9.38,9.4,14.86,14.86,0,0,1,20,5H40ZM26.34,8.74H20l-.42,0A11.24,11.24,0,0,0,20,31.24h6.22l5-5H20a6.23,6.23,0,0,1,0-12.45l.37,0h11ZM40,8.74H31.3l5,5H40Zm0,17.49H36.22l-5,5H40ZM17.47,20A2.5,2.5,0,0,0,20,22.5H35L37.49,20,35,17.49H20A2.5,2.5,0,0,0,17.47,20Z" style="fill:url(#a)"/><path d="M69.73,28.15a11.58,11.58,0,0,1-8.2,3.37C53.94,31.52,50,26.21,50,20.13S53.81,8.48,61.53,8.48a11.59,11.59,0,0,1,8.2,3.38l-1.19,1a9.85,9.85,0,0,0-7-2.86c-6.56,0-9.93,4.63-9.9,10s3.41,9.84,9.9,9.84a10,10,0,0,0,7-2.86Zm4.46-9H87.38v1.59H74.19v8.82H88.41v1.67h-16V8.74H88.73v1.67H74.19v8.75ZM106.1,8.74H108v0L100.31,19.7l8.27,11.52v0h-2.06l-7.26-10.3L92,31.24H89.92v0L98.19,19.7,90.55,8.79v0h1.89l6.82,9.63Z" style="fill:#005a85"/><path d="M116.21,31.27V8.74h1.67v22.5h-1.67ZM143.73,20c0,5.92-3.79,11.62-11.34,11.62S121,25.91,121,20,124.8,8.37,132.39,8.37,143.77,13.94,143.73,20Zm-21,0c0,5.08,3.25,10,9.65,10s9.67-5,9.67-10-3.21-10-9.67-10S122.71,14.68,122.74,20Zm-12.82-1.22A1.24,1.24,0,1,1,108.69,20,1.23,1.23,0,0,1,109.92,18.77Z" style="fill:url(#b)"/></svg>