<svg xmlns="http://www.w3.org/2000/svg" width="174" height="28" viewBox="0 0 174 28"><title>da-vinci-capital</title><path d="M13.8.17V18c0,1.28,0,2.78.11,3.77H11.54l-.12-2.55h-.06a5.39,5.39,0,0,1-5,2.9c-3.6,0-6.38-3-6.38-7.48C0,9.68,3,6.72,6.61,6.72a4.94,4.94,0,0,1,4.46,2.21h.06V.17ZM11.07,13A9.28,9.28,0,0,0,11,11.88,4,4,0,0,0,7.07,8.81c-2.78,0-4.4,2.44-4.4,5.68,0,3,1.5,5.45,4.34,5.45a4,4,0,0,0,3.89-3.19A3.91,3.91,0,0,0,11,15.59V13Z" style="fill:#6b3e94"/><path d="M27.77,18.26A22.22,22.22,0,0,0,28,21.8H25.62l-.23-1.86h-.11a5.46,5.46,0,0,1-4.53,2.2,4.17,4.17,0,0,1-4.46-4.23c0-3.53,3.13-5.5,8.81-5.45v-.29c0-1.21-.35-3.42-3.36-3.42a7.2,7.2,0,0,0-3.88,1.11l-.64-1.8a9.52,9.52,0,0,1,4.87-1.28c4.52,0,5.62,3.08,5.62,6v5.45Zm-2.61-4c-2.9-.06-6.2.46-6.2,3.31a2.36,2.36,0,0,0,2.49,2.55A3.65,3.65,0,0,0,25,17.68a2.18,2.18,0,0,0,.12-.87Z" style="fill:#6b3e94"/><path d="M38,7.07l2.9,8.23c.46,1.4.87,2.61,1.16,3.83h.11c.35-1.22.76-2.43,1.22-3.83l2.84-8.23H49L43.25,21.8H40.7L35.13,7.07ZM52.12,3.65a1.7,1.7,0,0,1-1.69-1.74A1.67,1.67,0,0,1,52.17.23a1.62,1.62,0,0,1,1.69,1.68,1.65,1.65,0,0,1-1.74,1.74ZM50.84,7.07h2.67V21.8H50.84ZM57.22,11c0-1.56,0-2.78-.12-4h2.38l.17,2.38h.06a5.42,5.42,0,0,1,4.87-2.72c2,0,5.22,1.21,5.22,6.26v8.81H67.13V13.28c0-2.38-.87-4.41-3.42-4.41a3.8,3.8,0,0,0-3.59,2.72,4.17,4.17,0,0,0-.18,1.28v8.87H57.28V11ZM83.83,21.28a10.29,10.29,0,0,1-4.24.86c-4.4,0-7.3-3-7.3-7.53a7.47,7.47,0,0,1,7.88-7.83,8.44,8.44,0,0,1,3.71.81l-.63,2a6.51,6.51,0,0,0-3.13-.69c-3.37,0-5.22,2.49-5.22,5.56C74.9,17.91,77.1,20,80,20a7.51,7.51,0,0,0,3.3-.7ZM87.48,3.65A1.69,1.69,0,0,1,85.8,1.91,1.66,1.66,0,0,1,87.54.23a1.62,1.62,0,0,1,1.68,1.68,1.71,1.71,0,0,1-1.74,1.74ZM86.2,7.07h2.67V21.8H86.2Z" style="fill:#00a7ce"/><path d="M107.94,21.39a10.13,10.13,0,0,1-4.29.87c-4.52,0-7.42-3-7.42-7.65a7.59,7.59,0,0,1,8-7.94,8.39,8.39,0,0,1,3.77.81l-.64,2.09a6.53,6.53,0,0,0-3.13-.7c-3.42,0-5.27,2.55-5.27,5.68,0,3.48,2.2,5.57,5.16,5.57a7.34,7.34,0,0,0,3.3-.7Zm12.93-3.07a23.38,23.38,0,0,0,.23,3.59h-2.43l-.24-1.85h-.05a5.56,5.56,0,0,1-4.58,2.2A4.25,4.25,0,0,1,109.22,18c0-3.59,3.19-5.56,9-5.56v-.29c0-1.22-.34-3.48-3.36-3.48a7.4,7.4,0,0,0-3.94,1.1l-.64-1.8a9.88,9.88,0,0,1,4.93-1.27c4.58,0,5.68,3.13,5.68,6.08Zm-2.61-4.06c-3-.06-6.32.46-6.32,3.36a2.39,2.39,0,0,0,2.55,2.61,3.7,3.7,0,0,0,3.65-2.49,2.18,2.18,0,0,0,.12-.87Zm6.2-2.43c0-1.92,0-3.48-.11-4.87h2.43L127,9.51H127a5.76,5.76,0,0,1,5.28-2.9c3.65,0,6.38,3.07,6.38,7.59,0,5.39-3.31,8-6.79,8a5.17,5.17,0,0,1-4.58-2.32h0V28h-2.73V11.83Zm2.73,4a8.36,8.36,0,0,0,.11,1.1,4.23,4.23,0,0,0,4.06,3.19c2.84,0,4.52-2.32,4.52-5.8,0-3-1.56-5.57-4.4-5.57a4.3,4.3,0,0,0-4.12,3.31,7,7,0,0,0-.17,1.1v2.67Zm15.36-11.6a1.7,1.7,0,0,1-1.68-1.74A1.72,1.72,0,0,1,142.61.75a1.68,1.68,0,0,1,1.74,1.74,1.76,1.76,0,0,1-1.8,1.74ZM141.22,7h2.72v14.9h-2.72ZM151,3.36V7h3.88V9H151V17.1c0,1.86.52,2.9,2,2.9a5.51,5.51,0,0,0,1.56-.17l.12,2.08a7.53,7.53,0,0,1-2.38.35,3.82,3.82,0,0,1-3-1.16,5.66,5.66,0,0,1-1-3.88V9.1H146V7h2.32V4.23Zm16.63,15a22.13,22.13,0,0,0,.24,3.59h-2.44l-.23-1.85H165a5.55,5.55,0,0,1-4.58,2.2A4.25,4.25,0,0,1,155.88,18c0-3.59,3.19-5.56,9-5.56v-.29c0-1.22-.35-3.48-3.36-3.48a7.55,7.55,0,0,0-3.94,1.1l-.64-1.8a9.85,9.85,0,0,1,4.93-1.27c4.57,0,5.68,3.13,5.68,6.08v5.57ZM165,14.26c-3-.06-6.32.46-6.32,3.36a2.39,2.39,0,0,0,2.55,2.61,3.71,3.71,0,0,0,3.65-2.49,2.18,2.18,0,0,0,.12-.87ZM171.19,0h2.72V21.91h-2.72Z" style="fill:#646569"/></svg>