<svg xmlns="http://www.w3.org/2000/svg" width="181" height="36" viewBox="0 0 181 36"><title>ecommpay</title><path d="M180.17,16.09,170.92,30a12.24,12.24,0,0,1-4.86,4.36A16.09,16.09,0,0,1,159.3,36l2.16-3.49a11.19,11.19,0,0,0,3.37-1.68c2-1.41,2.16-2.61,2.16-2.61l-1.47-.75L165.58,16s3.45.24,3.75,2.88l.6,5.23,6-7.15C177.11,15.61,180.17,16.09,180.17,16.09Zm-20.39,0c5.29.18,4.39,2.7,4.39,2.7L159.9,30.32h-3.66l.09-1.29a8.43,8.43,0,0,1-4.66,1.29c-2.88,0-3.78-1.5-2.88-4,2-5.53,10.27-4.66,10.27-4.66a9,9,0,0,0,.24-1,4.87,4.87,0,0,0,.06-.54,1.12,1.12,0,0,0,0-.33.47.47,0,0,0-.18-.24,1.33,1.33,0,0,0-.33-.24l-.45-.18-.45-.09a1.84,1.84,0,0,0-.42,0c-.18,0-.39,0-.75,0s-.87.09-1.47.18-1.26.24-2,.42l-.15-2.31S155,16.06,159.78,16.06Zm-2,9.28.51-1.44a6,6,0,0,0-3.48,1c-1.68,1.11-.81,2.73,1.26,2.28C157.11,26.9,157.44,26.12,157.77,25.34Zm-13.21-9.28c3.78,0,5.79,2.13,4.35,6.31-3,8.82-10.75,8-10.75,8-.24.63-.75,2.07-1.23,3.4-.87,2.4-6,2.25-6,2.25l6.93-18.89A20.92,20.92,0,0,1,144.56,16.06Zm-.51,6.7c1.8-5.29-2.37-3.22-2.37-3.22l-2.38,6.94S142.43,27.47,144.05,22.76Zm-10.81-6.7c1.89,0,2.52.9,1.86,2.73l-3.84,10.42a1.67,1.67,0,0,1-1.54,1.08H126.3l3.48-9.46a.82.82,0,0,0-.48-1,.88.88,0,0,0-.27-.06h-.15a2.4,2.4,0,0,0-2.28,1.59l-2.91,7.9a1.66,1.66,0,0,1-1.53,1.08h-3.43l3.49-9.46a.82.82,0,0,0-.48-1,.88.88,0,0,0-.27-.06h-.27a2.4,2.4,0,0,0-2.29,1.59L116,29.21a1.66,1.66,0,0,1-1.53,1.08h-3.42l5.22-14.2h4.6l-.48,1.26a9.06,9.06,0,0,1,4.89-1.29c1.5,0,2.28.42,2.37,1.29A11.27,11.27,0,0,1,133.24,16.06Zm-22.16,0c1.89,0,2.52.9,1.83,2.73l-3.82,10.42a1.66,1.66,0,0,1-1.53,1.08h-3.42l3.48-9.46a.82.82,0,0,0-.48-1,.88.88,0,0,0-.27-.06h-.15a2.4,2.4,0,0,0-2.28,1.59l-2.91,7.9A1.66,1.66,0,0,1,100,30.29H96.57l3.49-9.46a.82.82,0,0,0-.48-1,.94.94,0,0,0-.28-.06H99a2.4,2.4,0,0,0-2.28,1.59l-2.91,7.9a1.66,1.66,0,0,1-1.53,1.08H88.88l5.23-14.2H98.7l-.48,1.26a9.11,9.11,0,0,1,4.9-1.29c1.5,0,2.28.42,2.37,1.29A11.25,11.25,0,0,1,111.08,16.06ZM85.79,16c3.31,0,5.56,2.49,3.79,7.06s-4.87,7.17-9.37,7.17S74.59,28,76.57,22.61,82.52,16,85.79,16Zm-2.64,10.3c1.29-1.53,2.43-4.57,2.25-6.1s-1.68-1.53-3,0S80,24.8,80.18,26.33,81.86,27.86,83.15,26.33ZM78.1,17.08l-2.19,2.34a3.07,3.07,0,0,0-3.33,0c-.84.57-1.53,2.07-2.25,4-2.1,5.49,3.3,2.79,3.3,2.79l.69,2.94a13,13,0,0,1-5.58,1.17c-3.37,0-4.42-2.49-2.71-7.68a8.75,8.75,0,0,1,8.5-6.52C77.44,16.06,78.1,17.08,78.1,17.08ZM61.5,16c4.11,0,3.72,3.39,3.45,4.8A25,25,0,0,1,64,24.05H56.3s-.87,2.79,1.08,3.27,4.39-1.05,4.39-1.05L62,29s-1.47,1.32-5.32,1.32S51.32,28,53,23.12,57.38,16,61.5,16Zm-.45,5.55s.87-2.67-1-2.67-2.62,2.67-2.62,2.67ZM44.5,13.9A1.82,1.82,0,0,1,45,16.42L33.54,32.85a5.78,5.78,0,0,1-4.77,2.49H0L13.42,16l3.1,4.44L9.73,30.26H27.87a.78.78,0,0,0,.6-.3L39.85,13.6h3.6A1.71,1.71,0,0,1,44.5,13.9ZM43.84.32a.58.58,0,0,1,0,.39,3.84,3.84,0,0,1-.72,1.39c-.81,1.14-1.59,2.28-2.37,3.45L26.85,25.64a1.61,1.61,0,0,1-.45.45,1.66,1.66,0,0,1-2.32-.48c-4.44-6.73-5.34-8.11-6-9.1a7,7,0,0,1-1.14-2.07,1.15,1.15,0,0,1,.63-1.17c.45-.3,1.14-.54,7.5,2.1,4.06-3.7,8.11-7.36,12-11.29a20.78,20.78,0,0,1,3.42-3A9.76,9.76,0,0,1,41.83.32,2.46,2.46,0,0,1,43.3,0C43.54.08,43.78.14,43.84.32Z" style="fill:#187cbd"/></svg>