<svg xmlns="http://www.w3.org/2000/svg" width="174" height="50" viewBox="0 0 174 50"><title>iti-funds</title><path d="M74.78,37.4H81V12.47H74.78V37.4ZM99.71,24.93h6.23V12.46H99.71V24.93ZM87.25,43.64h6.23V18.71H87.25Z" style="fill:#a9a8ab;fill-rule:evenodd"/><path d="M12.46,24.93H18.7V6.23H12.46ZM24.93,37.38h6.23V12.46H24.93ZM0,37.39H6.23V24.93H0V37.39Z" style="fill:#a9a8ab;fill-rule:evenodd"/><path d="M62.32,49.86h6.23V18.7H62.32ZM37.39,12.46h6.23V0H37.39Zm0,37.4h6.23V18.7H37.39Zm12.47,0h6.23V0H49.86Zm12.46-37.4h6.23V0H62.32Z" style="fill:#00b4ae;fill-rule:evenodd"/><path d="M119.76,38.48v4.64h5.53v1.21h-5.53v5.56h-1.35V37.28h7.84v1.2ZM132.91,50a4.18,4.18,0,0,0,4.42-4.27V37.28H136v8.34a3.06,3.06,0,1,1-6.12,0V37.28h-1.34v8.45A4.16,4.16,0,0,0,132.91,50m17.22-.11V37.28h-1.35V47.36l-6.7-10.08H140.8V49.89h1.35V39.78l6.7,10.11Zm11.17-1.17c1.31-1.31,1.24-3.52,1.24-5.28s.07-3.68-1.24-5a4.38,4.38,0,0,0-3.19-1.17h-4.33V49.89h4.33a4.42,4.42,0,0,0,3.19-1.17m-.94-9.32c.87.91.83,2.5.83,4s0,3.42-.83,4.33a3.31,3.31,0,0,1-2.48.92h-2.75V38.48h2.75a3.31,3.31,0,0,1,2.48.92M169,50c2.62,0,4.36-1.36,4.36-3.58a3.15,3.15,0,0,0-1.07-2.5A4,4,0,0,0,170,43l-1.38-.22a3.51,3.51,0,0,1-1.7-.69,1.79,1.79,0,0,1-.57-1.45c0-1.4,1-2.34,2.66-2.34a4,4,0,0,1,2.94,1.08l.87-.87A5.09,5.09,0,0,0,169,37.17c-2.5,0-4,1.42-4,3.56a3,3,0,0,0,.95,2.36,4.62,4.62,0,0,0,2.33,1l1.47.23a2.69,2.69,0,0,1,1.65.6,2,2,0,0,1,.6,1.57c0,1.48-1.13,2.34-3,2.34a4.33,4.33,0,0,1-3.44-1.38l-.92.92A5.51,5.51,0,0,0,169,50M118.34,31.24h1.73V18.9h-1.73Zm13-12.34v1.5H127.5V31.24h-1.72V20.4h-3.89V18.9Zm1.81,0h1.72V31.24H133.2Z" style="fill:#00b4ae"/></svg>