<svg xmlns="http://www.w3.org/2000/svg" width="214" height="14" viewBox="0 0 214 14"><title>sum-and-substance</title><path d="M35.33,11.85l.83.5v1.28H32.41l-.07-1.19.92-.66V2.3l-.87-.78V.28h4l4,9.08L44.48.24h4.1l.06,1.3-1.09.51v9.7l1,.5v1.36h-5l-.09-1.28,1.23-.63V4.37l-.15,0-3.94,9H39.36L35.53,4.56l-.2.06ZM109.54,3.3c0,2.75,0,5.5,0,8.27l-1.15.65.09,1.42c2.75,0,5.41.14,8,0s3.55-1.13,3.74-3.26a4.4,4.4,0,0,0-.4-2.45c-.39-.68-1.27-1.07-1.94-1.58a2.81,2.81,0,0,0,.64-.38c1.12-1.08,1.07-2.4.79-3.81A2.08,2.08,0,0,0,117.29.3c-2.92-.11-5.85,0-8.82,0V1.71l1,.57C109.51,2.64,109.54,3,109.54,3.3Zm2.9,4.09c1.26.1,2.42.13,3.56.31s1.6,1,1.53,2.15a1.67,1.67,0,0,1-1.76,1.79c-1.07,0-2.14,0-3.33,0Zm0-5.34c1.07,0,2.09-.08,3.1,0A1.5,1.5,0,0,1,117,3.78a1.58,1.58,0,0,1-1.45,1.76,26.61,26.61,0,0,1-3.12,0ZM171.3,2v9.75l-1,.52v1.3h4.29l-.08-1.29-1-.54v-8l6.87,9.88h2V2.14l1.07-.52V.26h-4.32V1.59l1.1.56V8.7L174.44.26h-4V1.58Zm-109,2.75A1.94,1.94,0,0,1,62,2.3c.62-.9,1.55-.68,2.41-.43L65,3.59l1.46-.1.14-2.9a9.56,9.56,0,0,0-6-.19A2.25,2.25,0,0,0,58.83,3a19.91,19.91,0,0,0,.77,2.86c-.8.9-1.62,1.76-2.36,2.68A2.83,2.83,0,0,0,56.52,10a4,4,0,0,0,2.25,3.53c1.18.69,2.28.49,3.52-.55.6-.51,1.17-1.05,1.74-1.57,2.35,2.49,2.83,2.67,5.47,2.1V12c-1.78-.29-1.8-.31-3.45-2.79l1.78-1.31L66.49,6.38,64.76,7.8C63.91,6.74,63.13,5.75,62.32,4.77Zm.43,4.85A10.5,10.5,0,0,1,61,11.16,1.54,1.54,0,0,1,59.52,11a1.52,1.52,0,0,1-.12-1.47,11.56,11.56,0,0,1,1.84-1.78Zm-47-.89c0,4.15,1.17,5.28,5.38,5.21.28,0,.57,0,.85,0,3.18-.37,4.74-2.09,4.74-5.24V2.27l1.09-.64V.26h-5V1.64L24,2.17c0,2.5,0,5,0,7.43a2.37,2.37,0,0,1-2.58,2.58,2.43,2.43,0,0,1-2.78-2.54c-.09-2.46,0-4.93,0-7.41l1.16-.63L19.66.27h-5V1.62l1.12.63Zm76.1,1.41c0,2.12,1,3.37,3.07,3.62a12.49,12.49,0,0,0,4.48-.21c2.41-.59,3.37-2.09,3.37-4.58,0-2.23,0-4.45,0-6.68l1.2-.71L103.93.25H99V1.61l1.08.67c0,2.44,0,4.86,0,7.27a3.3,3.3,0,0,1-.24,1.11,2.53,2.53,0,0,1-2.9,1.51A2.17,2.17,0,0,1,94.76,10c-.06-2.6,0-5.2,0-7.82l1.06-.51V.26h-5V1.63l1.12.61C91.88,4.93,91.84,7.53,91.89,10.14ZM202.52.27V1.7l1,.52v9.43l-1,.58v1.36h10.67c.13-1.32.24-2.53.36-3.81h-1.81l-.86,1.86h-4.35V7.9h3.75v-2h-3.76V2.13l4.11.18.69,1.85,1.62-.09V.27ZM162,10l.67,1.7-1,.73.13,1.17h5V12.27l-1.13-.66L161,.24H158.4a2.74,2.74,0,0,0-.28.41c-1.3,3.24-2.56,6.5-3.91,9.72a13.49,13.49,0,0,1-1.38,2.12l-.29-.14.06,1.24H157V12.37l-1-.67.67-1.7Zm-4.67-1.75c.64-1.76,1.23-3.4,1.93-5.34.76,1.94,1.39,3.58,2.08,5.34ZM132.7,13.48c1.76-.57,2.32-1.64,2.26-3.92-.05-1.75-.64-2.52-2.4-3-1.27-.37-2.56-.69-3.83-1a1.81,1.81,0,0,1-1.29-2.11A1.46,1.46,0,0,1,129,1.91c1.07,0,2.15,0,3.26,0L132.84,4h1.53L134.73.1c-2.4,0-4.57-.13-6.71,0-2.33.19-3.15,1.17-3.27,3.33-.14,2.49.6,3.65,2.75,4.27a32,32,0,0,1,3.79,1.16,2,2,0,0,1,1,1.49c0,.43-.59,1-1.06,1.27a3.38,3.38,0,0,1-1.66.24c-1.58-.05-3.17-.17-4.82-.27v2C127.47,14,130.1,14.33,132.7,13.48ZM2.64.27A2.52,2.52,0,0,0,.22,2.49C-.42,5.55.56,7.17,3.54,8c.82.21,1.66.4,2.46.67a11.47,11.47,0,0,1,1.44.7C8,11,7.12,11.82,5.7,11.88c-1.18,0-2.36-.07-3.55-.12-.72,0-1.45-.09-2.15-.14v1.83c2.5.7,6.49.68,8.2,0s2.17-1.7,2.07-3.77C10.17,7.74,9.68,7,8,6.54c-1.27-.38-2.56-.67-3.83-1A1.84,1.84,0,0,1,2.79,3.31c.07-1,.77-1.37,1.64-1.41,1.07-.06,2.14,0,3.13,0l.74,2.3L9.86,4V.23C7.42.23,5,.15,2.64.27ZM79.92.13C77.35.33,76.58,1.4,76.68,4c0,.29,0,.57.07.85A2.67,2.67,0,0,0,79,7.66c1.18.36,2.38.63,3.56,1,1.7.51,2,1.28,1,2.86-2.27,1-4.63.06-7,.14v2c2.75.35,5.42.76,8.06-.17,1.71-.61,2.26-1.68,2.17-3.84a2.8,2.8,0,0,0-2.39-3.06c-1.23-.36-2.47-.67-3.7-1A1.88,1.88,0,0,1,79.25,3.4,1.56,1.56,0,0,1,81,1.89c1,0,2.06,0,3.12,0l.61,2.17h1.5L86.53.19C84.23.16,82.06,0,79.92.13ZM191.46.3a3.79,3.79,0,0,0-3.57,3.78c-.08,2-.07,4,0,6a3.27,3.27,0,0,0,1.78,3c2.92,1.35,5.85,1,8.77,0V11.41c-1.81.09-3.54.3-5.26.22a2.27,2.27,0,0,1-2.35-2.37,40.77,40.77,0,0,1,0-4.69A2.49,2.49,0,0,1,193,2.07a22.42,22.42,0,0,1,3,0l.5,2.12,1.76-.11V.25A62.51,62.51,0,0,0,191.46.3Zm-45,1.6,2.18.14L149,4h1.77V.27H139.05l.19,3.8h1.55L141.36,2h2v9.74l-1.62.47.07,1.38H148v-1.4l-1.58-.47Z" style="fill:#2b3490"/></svg>